<svg xmlns="http://www.w3.org/2000/svg" width="800" height="450" viewBox="0 0 800 450">
  <defs>
    <linearGradient id="bg1" x1="0%" y1="0%" x2="100%" y2="100%">
      <stop offset="0%" style="stop-color:#1a1a2e"/>
      <stop offset="100%" style="stop-color:#16213e"/>
    </linearGradient>
  </defs>
  <rect width="800" height="450" fill="url(#bg1)"/>
  <rect x="40" y="30" width="160" height="12" rx="6" fill="#7c3aed" opacity="0.6"/>
  <rect x="40" y="55" width="120" height="8" rx="4" fill="#ffffff" opacity="0.15"/>
  <rect x="40" y="90" width="720" height="180" rx="12" fill="#ffffff" opacity="0.05"/>
  <rect x="60" y="110" width="200" height="10" rx="5" fill="#a78bfa" opacity="0.4"/>
  <rect x="60" y="135" width="300" height="8" rx="4" fill="#ffffff" opacity="0.1"/>
  <rect x="60" y="155" width="250" height="8" rx="4" fill="#ffffff" opacity="0.1"/>
  <rect x="60" y="175" width="280" height="8" rx="4" fill="#ffffff" opacity="0.1"/>
  <rect x="60" y="200" width="100" height="28" rx="14" fill="#7c3aed" opacity="0.3"/>
  <rect x="175" y="200" width="100" height="28" rx="14" fill="#3b82f6" opacity="0.3"/>
  <rect x="40" y="300" width="720" height="100" rx="12" fill="#ffffff" opacity="0.05"/>
  <rect x="60" y="320" width="150" height="10" rx="5" fill="#60a5fa" opacity="0.4"/>
  <rect x="60" y="345" width="680" height="8" rx="4" fill="#ffffff" opacity="0.08"/>
  <rect x="60" y="365" width="600" height="8" rx="4" fill="#ffffff" opacity="0.08"/>
  <text x="400" y="435" text-anchor="middle" font-family="Inter,system-ui,sans-serif" font-size="14" fill="#ffffff" opacity="0.2">ThinkBoard — MERN Note Management Platform</text>
</svg>
