<svg xmlns="http://www.w3.org/2000/svg" width="800" height="450" viewBox="0 0 800 450">
  <defs>
    <linearGradient id="bg3" x1="0%" y1="0%" x2="100%" y2="100%">
      <stop offset="0%" style="stop-color:#1a0a2e"/>
      <stop offset="100%" style="stop-color:#2d1b4e"/>
    </linearGradient>
  </defs>
  <rect width="800" height="450" fill="url(#bg3)"/>
  <rect x="40" y="30" width="160" height="12" rx="6" fill="#f59e0b" opacity="0.6"/>
  <rect x="40" y="55" width="120" height="8" rx="4" fill="#ffffff" opacity="0.15"/>
  <rect x="40" y="90" width="230" height="160" rx="12" fill="#ffffff" opacity="0.05"/>
  <rect x="60" y="110" width="120" height="10" rx="5" fill="#fbbf24" opacity="0.4"/>
  <rect x="60" y="135" width="190" height="8" rx="4" fill="#ffffff" opacity="0.08"/>
  <rect x="60" y="155" width="170" height="8" rx="4" fill="#ffffff" opacity="0.08"/>
  <rect x="60" y="175" width="190" height="8" rx="4" fill="#ffffff" opacity="0.08"/>
  <rect x="60" y="200" width="80" height="28" rx="14" fill="#f59e0b" opacity="0.3"/>
  <rect x="290" y="90" width="230" height="160" rx="12" fill="#ffffff" opacity="0.05"/>
  <rect x="310" y="110" width="120" height="10" rx="5" fill="#fcd34d" opacity="0.4"/>
  <rect x="310" y="135" width="190" height="8" rx="4" fill="#ffffff" opacity="0.08"/>
  <rect x="310" y="155" width="160" height="8" rx="4" fill="#ffffff" opacity="0.08"/>
  <rect x="540" y="90" width="220" height="160" rx="12" fill="#ffffff" opacity="0.05"/>
  <rect x="560" y="110" width="120" height="10" rx="5" fill="#fde047" opacity="0.4"/>
  <rect x="560" y="135" width="180" height="8" rx="4" fill="#ffffff" opacity="0.08"/>
  <rect x="560" y="155" width="150" height="8" rx="4" fill="#ffffff" opacity="0.08"/>
  <rect x="40" y="280" width="720" height="120" rx="12" fill="#ffffff" opacity="0.05"/>
  <rect x="60" y="300" width="200" height="10" rx="5" fill="#fbbf24" opacity="0.4"/>
  <rect x="60" y="325" width="680" height="8" rx="4" fill="#ffffff" opacity="0.08"/>
  <rect x="60" y="345" width="600" height="8" rx="4" fill="#ffffff" opacity="0.08"/>
  <text x="400" y="435" text-anchor="middle" font-family="Inter,system-ui,sans-serif" font-size="14" fill="#ffffff" opacity="0.2">TicketNao — Multi-Transport Booking Platform</text>
</svg>
