<svg xmlns="http://www.w3.org/2000/svg" width="800" height="450" viewBox="0 0 800 450">
  <defs>
    <linearGradient id="bg2" x1="0%" y1="0%" x2="100%" y2="100%">
      <stop offset="0%" style="stop-color:#0f2027"/>
      <stop offset="100%" style="stop-color:#203a43"/>
    </linearGradient>
  </defs>
  <rect width="800" height="450" fill="url(#bg2)"/>
  <rect x="40" y="30" width="160" height="12" rx="6" fill="#22c55e" opacity="0.6"/>
  <rect x="40" y="55" width="120" height="8" rx="4" fill="#ffffff" opacity="0.15"/>
  <rect x="40" y="90" width="350" height="200" rx="12" fill="#ffffff" opacity="0.05"/>
  <rect x="60" y="110" width="180" height="10" rx="5" fill="#4ade80" opacity="0.4"/>
  <rect x="60" y="135" width="150" height="150" rx="8" fill="#ffffff" opacity="0.04"/>
  <rect x="60" y="295" width="150" height="8" rx="4" fill="#ffffff" opacity="0.1"/>
  <rect x="410" y="90" width="350" height="200" rx="12" fill="#ffffff" opacity="0.05"/>
  <rect x="430" y="110" width="160" height="10" rx="5" fill="#86efac" opacity="0.4"/>
  <rect x="430" y="135" width="130" height="8" rx="4" fill="#ffffff" opacity="0.08"/>
  <rect x="430" y="155" width="200" height="8" rx="4" fill="#ffffff" opacity="0.08"/>
  <rect x="430" y="175" width="170" height="8" rx="4" fill="#ffffff" opacity="0.08"/>
  <rect x="430" y="200" width="80" height="28" rx="14" fill="#22c55e" opacity="0.3"/>
  <rect x="525" y="200" width="80" height="28" rx="14" fill="#16a34a" opacity="0.3"/>
  <rect x="40" y="320" width="720" height="100" rx="12" fill="#ffffff" opacity="0.05"/>
  <rect x="60" y="340" width="200" height="10" rx="5" fill="#4ade80" opacity="0.4"/>
  <rect x="60" y="365" width="680" height="8" rx="4" fill="#ffffff" opacity="0.08"/>
  <rect x="60" y="385" width="550" height="8" rx="4" fill="#ffffff" opacity="0.08"/>
  <text x="400" y="435" text-anchor="middle" font-family="Inter,system-ui,sans-serif" font-size="14" fill="#ffffff" opacity="0.2">Zestora — Recipe Sharing Platform</text>
</svg>
